<svg xmlns="http://www.w3.org/2000/svg" version="1.1" xmlns:xlink="http://www.w3.org/1999/xlink" xmlns:svgjs="http://svgjs.com/svgjs" width="1440" height="560" preserveAspectRatio="none" viewBox="0 0 1440 560"><g mask="url(&quot;#SvgjsMask1011&quot;)" fill="none"><rect width="1440" height="560" x="0" y="0" fill="url(#SvgjsLinearGradient1012)"></rect><path d="M0 0L125.11 0L0 249.96z" fill="rgba(255, 255, 255, .1)"></path><path d="M0 249.96L125.11 0L626.66 0L0 333.61z" fill="rgba(255, 255, 255, .075)"></path><path d="M0 333.61L626.66 0L818.47 0L0 404.92z" fill="rgba(255, 255, 255, .05)"></path><path d="M0 404.92L818.47 0L1001.39 0L0 508.32000000000005z" fill="rgba(255, 255, 255, .025)"></path><path d="M1440 560L1239.68 560L1440 317.58000000000004z" fill="rgba(0, 0, 0, .1)"></path><path d="M1440 317.58000000000004L1239.68 560L621.3700000000001 560L1440 195.72000000000003z" fill="rgba(0, 0, 0, .075)"></path><path d="M1440 195.72000000000003L621.3700000000001 560L318.1400000000001 560L1440 166.04000000000002z" fill="rgba(0, 0, 0, .05)"></path><path d="M1440 166.04000000000002L318.1400000000001 560L264.1900000000001 560L1440 118.04000000000002z" fill="rgba(0, 0, 0, .025)"></path></g><defs><mask id="SvgjsMask1011"><rect width="1440" height="560" fill="#ffffff"></rect></mask><linearGradient x1="15.28%" y1="-39.29%" x2="84.72%" y2="139.29%" gradientUnits="userSpaceOnUse" id="SvgjsLinearGradient1012"><stop stop-color="#0e2a47" offset="0"></stop><stop stop-color="#00459e" offset="1"></stop></linearGradient></defs></svg>