<svg xmlns="http://www.w3.org/2000/svg" version="1.1" xmlns:xlink="http://www.w3.org/1999/xlink" xmlns:svgjs="http://svgjs.com/svgjs" width="200" height="200" preserveAspectRatio="none" viewBox="0 0 200 200"><g mask="url(&quot;#SvgjsMask1000&quot;)" fill="none"><path d="M148.979,67.165C161.798,67.217,171.45,56.649,177.441,45.316C182.994,34.812,184.305,22.202,178.106,12.066C172.138,2.308,160.416,-1.073,148.979,-1.22C137.216,-1.371,124.622,1.239,118.525,11.3C112.254,21.648,115.124,34.462,120.915,45.086C127.021,56.287,136.222,67.113,148.979,67.165" fill="rgba(28, 83, 142, 0.21)" class="triangle-float3"></path><path d="M178.342,150.865C186.181,151.174,194.19,148.894,198.607,142.41C203.611,135.064,205.642,125.207,200.972,117.645C196.464,110.344,186.911,109.146,178.342,109.592C170.681,109.991,163.226,113.125,159.456,119.806C155.743,126.385,156.74,134.462,160.665,140.916C164.43,147.108,171.101,150.58,178.342,150.865" fill="rgba(28, 83, 142, 0.21)" class="triangle-float3"></path><path d="M82.804,91.269C91.096,90.777,96.441,83.623,100.81,76.558C105.527,68.931,110.769,60.336,106.953,52.22C102.713,43.202,92.752,37.68,82.804,38.26C73.63,38.795,67.478,46.705,63.087,54.778C58.942,62.398,56.554,71.306,60.677,78.937C64.979,86.899,73.77,91.805,82.804,91.269" fill="rgba(28, 83, 142, 0.21)" class="triangle-float3"></path><path d="M95.996,179.887C102.314,179.334,107.649,175.518,110.719,169.968C113.684,164.608,113.867,158.22,110.967,152.825C107.898,147.117,102.477,142.613,95.996,142.581C89.468,142.548,84.348,147.218,80.764,152.674C76.669,158.909,72.372,166.495,76.015,173.004C79.703,179.592,88.475,180.545,95.996,179.887" fill="rgba(28, 83, 142, 0.21)" class="triangle-float2"></path></g><defs><mask id="SvgjsMask1000"><rect width="200" height="200" fill="#ffffff"></rect></mask></defs></svg>