<svg xmlns="http://www.w3.org/2000/svg" version="1.1" xmlns:xlink="http://www.w3.org/1999/xlink" xmlns:svgjs="http://svgjs.com/svgjs" width="1200" height="200" preserveAspectRatio="none" viewBox="0 0 1200 200"><g mask="url(&quot;#SvgjsMask2736&quot;)" fill="none"><rect width="1200" height="200" x="0" y="0" fill="url(#SvgjsLinearGradient2737)"></rect><path d="M1200 0L842.99 0L1200 29.72z" fill="rgba(255, 255, 255, .1)"></path><path d="M842.99 0L1200 29.72L1200 51.879999999999995L611.24 0z" fill="rgba(255, 255, 255, .075)"></path><path d="M611.24 0L1200 51.879999999999995L1200 140.32L257.12 0z" fill="rgba(255, 255, 255, .05)"></path><path d="M257.12 0L1200 140.32L1200 150.12L173.65 0z" fill="rgba(255, 255, 255, .025)"></path><path d="M0 200L541.57 200L0 157.96z" fill="rgba(0, 0, 0, .1)"></path><path d="M0 157.96L541.57 200L882.8000000000001 200L0 80.72000000000001z" fill="rgba(0, 0, 0, .075)"></path><path d="M0 80.72L882.8000000000001 200L883.9300000000001 200L0 57.68z" fill="rgba(0, 0, 0, .05)"></path><path d="M0 57.68000000000001L883.9300000000001 200L904.99 200L0 32.330000000000005z" fill="rgba(0, 0, 0, .025)"></path></g><defs><mask id="SvgjsMask2736"><rect width="1200" height="200" fill="#ffffff"></rect></mask><linearGradient x1="20.83%" y1="225%" x2="79.17%" y2="-125%" gradientUnits="userSpaceOnUse" id="SvgjsLinearGradient2737"><stop stop-color="rgba(40, 83, 128, 1)" offset="0"></stop><stop stop-color="rgba(0, 69, 158, 1)" offset="1"></stop></linearGradient></defs></svg>