<svg xmlns="http://www.w3.org/2000/svg" version="1.1" xmlns:xlink="http://www.w3.org/1999/xlink" xmlns:svgjs="http://svgjs.com/svgjs" width="200" height="200" preserveAspectRatio="none" viewBox="0 0 200 200"><g mask="url(&quot;#SvgjsMask1000&quot;)" fill="none"><path d="M44.4 166.39L44.4 166.9L48.04 166.9L48.04 166.39zM47.12 166.65 a0.92 0.92 0 1 0 1.84 0 a0.92 0.92 0 1 0 -1.84 0zM43.74 170.19L43.54 170.67L48.04 172.53L48.24 172.05zM47.22 172.29 a0.92 0.92 0 1 0 1.84 0 a0.92 0.92 0 1 0 -1.84 0zM41.68 173.45L41.32 173.82L42.65 175.15L43.01 174.78zM41.91 174.96 a0.92 0.92 0 1 0 1.84 0 a0.92 0.92 0 1 0 -1.84 0zM38.53 175.68L38.05 175.88L39.73 179.93L40.21 179.73zM39.05 179.83 a0.92 0.92 0 1 0 1.84 0 a0.92 0.92 0 1 0 -1.84 0zM34.77 176.53L34.25 176.53L34.25 179.47L34.77 179.47zM33.59 179.47 a0.92 0.92 0 1 0 1.84 0 a0.92 0.92 0 1 0 -1.84 0zM30.97 175.88L30.49 175.68L28.99 179.3L29.47 179.5zM28.31 179.4 a0.92 0.92 0 1 0 1.84 0 a0.92 0.92 0 1 0 -1.84 0zM27.7 173.82L27.34 173.45L24.41 176.38L24.78 176.75zM23.67 176.56 a0.92 0.92 0 1 0 1.84 0 a0.92 0.92 0 1 0 -1.84 0zM25.48 170.67L25.28 170.19L23.88 170.77L24.08 171.24zM23.06 171.01 a0.92 0.92 0 1 0 1.84 0 a0.92 0.92 0 1 0 -1.84 0zM24.63 166.9L24.63 166.39L23.3 166.39L23.3 166.9zM22.38 166.65 a0.92 0.92 0 1 0 1.84 0 a0.92 0.92 0 1 0 -1.84 0zM25.28 163.1L25.48 162.62L23.91 161.97L23.71 162.45zM22.89 162.21 a0.92 0.92 0 1 0 1.84 0 a0.92 0.92 0 1 0 -1.84 0zM27.34 159.84L27.7 159.47L26.21 157.98L25.85 158.35zM25.11 158.16 a0.92 0.92 0 1 0 1.84 0 a0.92 0.92 0 1 0 -1.84 0zM30.49 157.61L30.97 157.41L30.14 155.41L29.66 155.61zM28.98 155.51 a0.92 0.92 0 1 0 1.84 0 a0.92 0.92 0 1 0 -1.84 0zM34.25 156.76L34.77 156.76L34.77 153.47L34.25 153.47zM33.59 153.47 a0.92 0.92 0 1 0 1.84 0 a0.92 0.92 0 1 0 -1.84 0zM38.05 157.41L38.53 157.61L39.73 154.72L39.25 154.52zM38.57 154.62 a0.92 0.92 0 1 0 1.84 0 a0.92 0.92 0 1 0 -1.84 0zM41.32 159.47L41.68 159.84L43.25 158.27L42.89 157.9zM42.15 158.09 a0.92 0.92 0 1 0 1.84 0 a0.92 0.92 0 1 0 -1.84 0zM43.54 162.62L43.74 163.1L46.82 161.83L46.62 161.35zM45.8 161.59 a0.92 0.92 0 1 0 1.84 0 a0.92 0.92 0 1 0 -1.84 0zM24.62 166.65 a9.89 9.89 0 1 0 19.78 0 a9.89 9.89 0 1 0 -19.78 0z" fill="rgba(248, 252, 255, 0.13)"></path><path d="M36.35 176.36 A8.888 8.888 0 0 1 25.17 163.4M25.17 163.4 A19.776 19.776 0 0 0 36.35 176.36" fill="rgba(147, 209, 255, 0.13)" fill-rule="nonzero"></path><path d="M37.68 169.12 a1.98 1.98 0 1 0 3.96 0 a1.98 1.98 0 1 0 -3.96 0zM24.79 168.11 a0.69 0.69 0 1 0 1.38 0 a0.69 0.69 0 1 0 -1.38 0zM27.55 170.8 a1.98 1.98 0 1 0 3.96 0 a1.98 1.98 0 1 0 -3.96 0zM43.03 163.65 a0.4 0.4 0 1 0 0.8 0 a0.4 0.4 0 1 0 -0.8 0zM39.41 163.49 a0.79 0.79 0 1 0 1.58 0 a0.79 0.79 0 1 0 -1.58 0zM34.05 172.67 a1.48 1.48 0 1 0 2.96 0 a1.48 1.48 0 1 0 -2.96 0zM34.29 159.34 a1.98 1.98 0 1 0 3.96 0 a1.98 1.98 0 1 0 -3.96 0zM34.79 166.9 a0.69 0.69 0 1 0 1.38 0 a0.69 0.69 0 1 0 -1.38 0zM31.01 162.31 a1.09 1.09 0 1 0 2.18 0 a1.09 1.09 0 1 0 -2.18 0zM26.24 163.66 a1.48 1.48 0 1 0 2.96 0 a1.48 1.48 0 1 0 -2.96 0z" fill="rgba(147, 209, 255, 0.13)" fill-rule="nonzero"></path><path d="M23.42 87.54L23.42 87.99L25.6 87.99L25.6 87.54zM24.8 87.77 a0.8 0.8 0 1 0 1.6 0 a0.8 0.8 0 1 0 -1.6 0zM22.85 90.87L22.68 91.29L24.91 92.21L25.09 91.79zM24.2 92 a0.8 0.8 0 1 0 1.6 0 a0.8 0.8 0 1 0 -1.6 0zM21.05 93.72L20.73 94.04L22.99 96.3L23.31 95.98zM22.35 96.14 a0.8 0.8 0 1 0 1.6 0 a0.8 0.8 0 1 0 -1.6 0zM18.29 95.67L17.88 95.84L19.46 99.68L19.88 99.5zM18.87 99.59 a0.8 0.8 0 1 0 1.6 0 a0.8 0.8 0 1 0 -1.6 0zM15 96.42L14.55 96.42L14.55 98.68L15 98.68zM13.98 98.68 a0.8 0.8 0 1 0 1.6 0 a0.8 0.8 0 1 0 -1.6 0zM11.67 95.84L11.26 95.67L10.7 97.01L11.12 97.18zM10.11 97.1 a0.8 0.8 0 1 0 1.6 0 a0.8 0.8 0 1 0 -1.6 0zM8.82 94.04L8.5 93.72L6.65 95.57L6.97 95.9zM6.01 95.74 a0.8 0.8 0 1 0 1.6 0 a0.8 0.8 0 1 0 -1.6 0zM6.87 91.29L6.7 90.87L3.77 92.08L3.94 92.5zM3.06 92.29 a0.8 0.8 0 1 0 1.6 0 a0.8 0.8 0 1 0 -1.6 0zM6.13 87.99L6.13 87.54L3.8 87.54L3.8 87.99zM3 87.77 a0.8 0.8 0 1 0 1.6 0 a0.8 0.8 0 1 0 -1.6 0zM6.7 84.67L6.87 84.25L5.52 83.69L5.35 84.11zM4.64 83.9 a0.8 0.8 0 1 0 1.6 0 a0.8 0.8 0 1 0 -1.6 0zM8.5 81.81L8.82 81.49L7.37 80.04L7.05 80.36zM6.41 80.2 a0.8 0.8 0 1 0 1.6 0 a0.8 0.8 0 1 0 -1.6 0zM11.26 79.86L11.67 79.69L10.97 77.99L10.55 78.16zM9.96 78.08 a0.8 0.8 0 1 0 1.6 0 a0.8 0.8 0 1 0 -1.6 0zM14.55 79.12L15 79.12L15 74.97L14.55 74.97zM13.97 74.97 a0.8 0.8 0 1 0 1.6 0 a0.8 0.8 0 1 0 -1.6 0zM17.88 79.69L18.29 79.86L19.38 77.23L18.97 77.06zM18.38 77.14 a0.8 0.8 0 1 0 1.6 0 a0.8 0.8 0 1 0 -1.6 0zM20.73 81.49L21.05 81.81L23.81 79.05L23.49 78.73zM22.85 78.89 a0.8 0.8 0 1 0 1.6 0 a0.8 0.8 0 1 0 -1.6 0zM22.68 84.25L22.85 84.67L25.55 83.55L25.38 83.13zM24.66 83.34 a0.8 0.8 0 1 0 1.6 0 a0.8 0.8 0 1 0 -1.6 0zM6.13 87.77 a8.65 8.65 0 1 0 17.3 0 a8.65 8.65 0 1 0 -17.3 0z" fill="rgba(248, 252, 255, 0.13)"></path><path d="M19.29 80.39 A7.651999999999999 7.651999999999999 0 0 1 18.92 95.36M18.92 95.36 A17.304 17.304 0 0 0 19.29 80.39" fill="rgba(147, 209, 255, 0.13)" fill-rule="nonzero"></path><path d="M12.86 82.58 a1.73 1.73 0 1 0 3.46 0 a1.73 1.73 0 1 0 -3.46 0zM16.14 86.38 a1.21 1.21 0 1 0 2.42 0 a1.21 1.21 0 1 0 -2.42 0zM8.21 82.79 a1.38 1.38 0 1 0 2.76 0 a1.38 1.38 0 1 0 -2.76 0zM17.59 95.01 a0.61 0.61 0 1 0 1.22 0 a0.61 0.61 0 1 0 -1.22 0zM18.07 83.02 a0.69 0.69 0 1 0 1.38 0 a0.69 0.69 0 1 0 -1.38 0zM9.67 88.76 a1.73 1.73 0 1 0 3.46 0 a1.73 1.73 0 1 0 -3.46 0zM8.36 92.54 a0.87 0.87 0 1 0 1.74 0 a0.87 0.87 0 1 0 -1.74 0zM20.31 86.2 a0.61 0.61 0 1 0 1.22 0 a0.61 0.61 0 1 0 -1.22 0zM14.76 89.68 a0.35 0.35 0 1 0 0.7 0 a0.35 0.35 0 1 0 -0.7 0zM16.13 92.43 a0.61 0.61 0 1 0 1.22 0 a0.61 0.61 0 1 0 -1.22 0z" fill="rgba(147, 209, 255, 0.13)" fill-rule="nonzero"></path><path d="M127.2 22.61L127.2 23.12L128.9 23.12L128.9 22.61zM127.98 22.86 a0.92 0.92 0 1 0 1.84 0 a0.92 0.92 0 1 0 -1.84 0zM126.54 26.41L126.34 26.89L127.58 27.4L127.78 26.92zM126.76 27.16 a0.92 0.92 0 1 0 1.84 0 a0.92 0.92 0 1 0 -1.84 0zM124.48 29.67L124.12 30.04L125.57 31.49L125.94 31.13zM124.84 31.31 a0.92 0.92 0 1 0 1.84 0 a0.92 0.92 0 1 0 -1.84 0zM121.33 31.9L120.85 32.1L122.52 36.11L122.99 35.91zM121.83 36.01 a0.92 0.92 0 1 0 1.84 0 a0.92 0.92 0 1 0 -1.84 0zM117.57 32.75L117.05 32.75L117.05 36.68L117.57 36.68zM116.39 36.68 a0.92 0.92 0 1 0 1.84 0 a0.92 0.92 0 1 0 -1.84 0zM113.77 32.1L113.29 31.9L111.89 35.27L112.37 35.47zM111.21 35.37 a0.92 0.92 0 1 0 1.84 0 a0.92 0.92 0 1 0 -1.84 0zM110.5 30.04L110.14 29.67L108.49 31.32L108.86 31.69zM107.75 31.5 a0.92 0.92 0 1 0 1.84 0 a0.92 0.92 0 1 0 -1.84 0zM108.28 26.89L108.08 26.41L106.33 27.13L106.53 27.61zM105.51 27.37 a0.92 0.92 0 1 0 1.84 0 a0.92 0.92 0 1 0 -1.84 0zM107.43 23.12L107.43 22.61L103.87 22.61L103.87 23.12zM102.95 22.87 a0.92 0.92 0 1 0 1.84 0 a0.92 0.92 0 1 0 -1.84 0zM108.08 19.32L108.28 18.84L105.31 17.61L105.11 18.09zM104.29 17.85 a0.92 0.92 0 1 0 1.84 0 a0.92 0.92 0 1 0 -1.84 0zM110.14 16.06L110.5 15.69L108.46 13.65L108.1 14.02zM107.36 13.83 a0.92 0.92 0 1 0 1.84 0 a0.92 0.92 0 1 0 -1.84 0zM113.29 13.83L113.77 13.63L113.27 12.43L112.79 12.63zM112.11 12.53 a0.92 0.92 0 1 0 1.84 0 a0.92 0.92 0 1 0 -1.84 0zM117.05 12.98L117.57 12.98L117.57 10.56L117.05 10.56zM116.39 10.56 a0.92 0.92 0 1 0 1.84 0 a0.92 0.92 0 1 0 -1.84 0zM120.85 13.63L121.33 13.83L121.92 12.42L121.44 12.22zM120.76 12.32 a0.92 0.92 0 1 0 1.84 0 a0.92 0.92 0 1 0 -1.84 0zM124.12 15.69L124.48 16.06L125.35 15.19L124.99 14.82zM124.25 15.01 a0.92 0.92 0 1 0 1.84 0 a0.92 0.92 0 1 0 -1.84 0zM126.34 18.84L126.54 19.32L129.39 18.14L129.19 17.66zM128.37 17.9 a0.92 0.92 0 1 0 1.84 0 a0.92 0.92 0 1 0 -1.84 0zM107.42 22.86 a9.89 9.89 0 1 0 19.78 0 a9.89 9.89 0 1 0 -19.78 0z" fill="rgba(248, 252, 255, 0.13)"></path><path d="M123.21 30.8 A8.888 8.888 0 0 1 107.49 24.03M107.49 24.03 A19.776 19.776 0 0 0 123.21 30.8" fill="rgba(147, 209, 255, 0.13)" fill-rule="nonzero"></path><path d="M121.06 21.45 a1.98 1.98 0 1 0 3.96 0 a1.98 1.98 0 1 0 -3.96 0zM112.24 20.92 a1.98 1.98 0 1 0 3.96 0 a1.98 1.98 0 1 0 -3.96 0zM116.84 31.08 a1.58 1.58 0 1 0 3.16 0 a1.58 1.58 0 1 0 -3.16 0zM109.09 27.61 a1.98 1.98 0 1 0 3.96 0 a1.98 1.98 0 1 0 -3.96 0zM120.12 27.02 a1.68 1.68 0 1 0 3.36 0 a1.68 1.68 0 1 0 -3.36 0zM115.72 16.95 a0.4 0.4 0 1 0 0.8 0 a0.4 0.4 0 1 0 -0.8 0zM118.5 14 a0.79 0.79 0 1 0 1.58 0 a0.79 0.79 0 1 0 -1.58 0zM110.32 16.67 a1.09 1.09 0 1 0 2.18 0 a1.09 1.09 0 1 0 -2.18 0zM118.89 17.53 a0.69 0.69 0 1 0 1.38 0 a0.69 0.69 0 1 0 -1.38 0zM109.35 22.51 a0.59 0.59 0 1 0 1.18 0 a0.59 0.59 0 1 0 -1.18 0z" fill="rgba(147, 209, 255, 0.13)" fill-rule="nonzero"></path><path d="M70.82 131.75L70.82 132.27L75.15 132.27L75.15 131.75zM74.23 132.01 a0.92 0.92 0 1 0 1.84 0 a0.92 0.92 0 1 0 -1.84 0zM70.17 135.55L69.97 136.03L72.6 137.12L72.8 136.64zM71.78 136.88 a0.92 0.92 0 1 0 1.84 0 a0.92 0.92 0 1 0 -1.84 0zM68.11 138.81L67.74 139.18L70.65 142.09L71.02 141.72zM69.91 141.9 a0.92 0.92 0 1 0 1.84 0 a0.92 0.92 0 1 0 -1.84 0zM64.96 141.04L64.48 141.24L65.82 144.48L66.3 144.28zM65.14 144.38 a0.92 0.92 0 1 0 1.84 0 a0.92 0.92 0 1 0 -1.84 0zM61.2 141.89L60.68 141.89L60.68 144.58L61.2 144.58zM60.02 144.58 a0.92 0.92 0 1 0 1.84 0 a0.92 0.92 0 1 0 -1.84 0zM57.39 141.24L56.92 141.04L56.36 142.39L56.84 142.59zM55.68 142.49 a0.92 0.92 0 1 0 1.84 0 a0.92 0.92 0 1 0 -1.84 0zM54.13 139.18L53.77 138.81L50.43 142.15L50.79 142.52zM49.69 142.33 a0.92 0.92 0 1 0 1.84 0 a0.92 0.92 0 1 0 -1.84 0zM51.91 136.03L51.71 135.55L47.84 137.15L48.03 137.63zM47.01 137.39 a0.92 0.92 0 1 0 1.84 0 a0.92 0.92 0 1 0 -1.84 0zM51.05 132.27L51.05 131.75L48.84 131.75L48.84 132.27zM47.92 132.01 a0.92 0.92 0 1 0 1.84 0 a0.92 0.92 0 1 0 -1.84 0zM51.71 128.46L51.91 127.98L48.99 126.78L48.79 127.25zM47.97 127.01 a0.92 0.92 0 1 0 1.84 0 a0.92 0.92 0 1 0 -1.84 0zM53.77 125.2L54.13 124.83L51.01 121.72L50.65 122.08zM49.91 121.9 a0.92 0.92 0 1 0 1.84 0 a0.92 0.92 0 1 0 -1.84 0zM56.92 122.97L57.39 122.78L55.94 119.26L55.46 119.46zM54.78 119.36 a0.92 0.92 0 1 0 1.84 0 a0.92 0.92 0 1 0 -1.84 0zM60.68 122.12L61.2 122.12L61.2 119.69L60.68 119.69zM60.02 119.69 a0.92 0.92 0 1 0 1.84 0 a0.92 0.92 0 1 0 -1.84 0zM64.48 122.78L64.96 122.97L65.66 121.28L65.18 121.08zM64.5 121.18 a0.92 0.92 0 1 0 1.84 0 a0.92 0.92 0 1 0 -1.84 0zM67.74 124.83L68.11 125.2L69.94 123.37L69.58 123zM68.84 123.19 a0.92 0.92 0 1 0 1.84 0 a0.92 0.92 0 1 0 -1.84 0zM69.97 127.98L70.17 128.46L74.34 126.74L74.14 126.26zM73.32 126.5 a0.92 0.92 0 1 0 1.84 0 a0.92 0.92 0 1 0 -1.84 0zM51.05 132.01 a9.89 9.89 0 1 0 19.78 0 a9.89 9.89 0 1 0 -19.78 0z" fill="rgba(248, 252, 255, 0.13)"></path><path d="M66 140.5 A8.888 8.888 0 0 1 51.05 132.17M51.05 132.17 A19.776 19.776 0 0 0 66 140.5" fill="rgba(147, 209, 255, 0.13)" fill-rule="nonzero"></path><path d="M64.1 135.16 a1.98 1.98 0 1 0 3.96 0 a1.98 1.98 0 1 0 -3.96 0zM52.58 136.6 a1.78 1.78 0 1 0 3.56 0 a1.78 1.78 0 1 0 -3.56 0zM54.86 124.52 a0.59 0.59 0 1 0 1.18 0 a0.59 0.59 0 1 0 -1.18 0zM62.3 127.44 a1.98 1.98 0 1 0 3.96 0 a1.98 1.98 0 1 0 -3.96 0zM59.74 129.45 a0.49 0.49 0 1 0 0.98 0 a0.49 0.49 0 1 0 -0.98 0zM59.38 139.53 a1.98 1.98 0 1 0 3.96 0 a1.98 1.98 0 1 0 -3.96 0zM58.69 125.05 a1.09 1.09 0 1 0 2.18 0 a1.09 1.09 0 1 0 -2.18 0zM68.11 128.75 a0.79 0.79 0 1 0 1.58 0 a0.79 0.79 0 1 0 -1.58 0zM53.63 129.03 a1.88 1.88 0 1 0 3.76 0 a1.88 1.88 0 1 0 -3.76 0zM57.96 135.14 a0.79 0.79 0 1 0 1.58 0 a0.79 0.79 0 1 0 -1.58 0z" fill="rgba(147, 209, 255, 0.13)" fill-rule="nonzero"></path><path d="M112.77 163.15L112.77 163.67L115.29 163.67L115.29 163.15zM114.37 163.41 a0.92 0.92 0 1 0 1.84 0 a0.92 0.92 0 1 0 -1.84 0zM112.11 166.95L111.92 167.43L115.62 168.96L115.82 168.49zM114.8 168.72 a0.92 0.92 0 1 0 1.84 0 a0.92 0.92 0 1 0 -1.84 0zM110.06 170.21L109.69 170.58L113.09 173.98L113.46 173.61zM112.35 173.8 a0.92 0.92 0 1 0 1.84 0 a0.92 0.92 0 1 0 -1.84 0zM106.91 172.44L106.43 172.64L106.97 173.96L107.45 173.76zM106.29 173.86 a0.92 0.92 0 1 0 1.84 0 a0.92 0.92 0 1 0 -1.84 0zM103.14 173.29L102.62 173.29L102.62 176.52L103.14 176.52zM101.96 176.52 a0.92 0.92 0 1 0 1.84 0 a0.92 0.92 0 1 0 -1.84 0zM99.34 172.64L98.86 172.44L98.1 174.28L98.58 174.48zM97.42 174.38 a0.92 0.92 0 1 0 1.84 0 a0.92 0.92 0 1 0 -1.84 0zM96.08 170.58L95.71 170.21L92.76 173.16L93.13 173.53zM92.03 173.35 a0.92 0.92 0 1 0 1.84 0 a0.92 0.92 0 1 0 -1.84 0zM93.85 167.43L93.65 166.95L91.68 167.77L91.88 168.24zM90.86 168.01 a0.92 0.92 0 1 0 1.84 0 a0.92 0.92 0 1 0 -1.84 0zM93 163.67L93 163.15L89.98 163.15L89.98 163.67zM89.06 163.41 a0.92 0.92 0 1 0 1.84 0 a0.92 0.92 0 1 0 -1.84 0zM93.65 159.86L93.85 159.39L90.57 158.03L90.37 158.51zM89.55 158.27 a0.92 0.92 0 1 0 1.84 0 a0.92 0.92 0 1 0 -1.84 0zM95.71 156.6L96.08 156.23L94.33 154.49L93.96 154.85zM93.23 154.67 a0.92 0.92 0 1 0 1.84 0 a0.92 0.92 0 1 0 -1.84 0zM98.86 154.37L99.34 154.18L97.64 150.07L97.16 150.27zM96.48 150.17 a0.92 0.92 0 1 0 1.84 0 a0.92 0.92 0 1 0 -1.84 0zM102.62 153.52L103.14 153.52L103.14 150.4L102.62 150.4zM101.96 150.4 a0.92 0.92 0 1 0 1.84 0 a0.92 0.92 0 1 0 -1.84 0zM106.43 154.18L106.91 154.37L107.68 152.51L107.2 152.31zM106.52 152.41 a0.92 0.92 0 1 0 1.84 0 a0.92 0.92 0 1 0 -1.84 0zM109.69 156.23L110.06 156.6L111.73 154.93L111.37 154.56zM110.63 154.74 a0.92 0.92 0 1 0 1.84 0 a0.92 0.92 0 1 0 -1.84 0zM111.92 159.39L112.11 159.86L114.31 158.95L114.12 158.47zM113.29 158.71 a0.92 0.92 0 1 0 1.84 0 a0.92 0.92 0 1 0 -1.84 0zM92.99 163.41 a9.89 9.89 0 1 0 19.78 0 a9.89 9.89 0 1 0 -19.78 0z" fill="rgba(248, 252, 255, 0.13)"></path><path d="M111.44 168.37 A8.888 8.888 0 0 1 94.32 168.35M94.32 168.35 A19.776 19.776 0 0 0 111.44 168.37" fill="rgba(147, 209, 255, 0.13)" fill-rule="nonzero"></path><path d="M108.69 167.41 a1.48 1.48 0 1 0 2.96 0 a1.48 1.48 0 1 0 -2.96 0zM103.31 161.25 a1.98 1.98 0 1 0 3.96 0 a1.98 1.98 0 1 0 -3.96 0zM110.24 159.43 a0.79 0.79 0 1 0 1.58 0 a0.79 0.79 0 1 0 -1.58 0zM93.09 164.18 a0.89 0.89 0 1 0 1.78 0 a0.89 0.89 0 1 0 -1.78 0zM97.54 158.51 a1.98 1.98 0 1 0 3.96 0 a1.98 1.98 0 1 0 -3.96 0zM104.09 156.77 a0.49 0.49 0 1 0 0.98 0 a0.49 0.49 0 1 0 -0.98 0zM99.75 166.01 a1.98 1.98 0 1 0 3.96 0 a1.98 1.98 0 1 0 -3.96 0zM95.89 170.16 a0.49 0.49 0 1 0 0.98 0 a0.49 0.49 0 1 0 -0.98 0zM102.1 171.41 a1.78 1.78 0 1 0 3.56 0 a1.78 1.78 0 1 0 -3.56 0zM94.78 157.96 a0.4 0.4 0 1 0 0.8 0 a0.4 0.4 0 1 0 -0.8 0z" fill="rgba(147, 209, 255, 0.13)" fill-rule="nonzero"></path><path d="M60.98 10.37L60.98 10.69L62.97 10.69L62.97 10.37zM62.4 10.53 a0.57 0.57 0 1 0 1.14 0 a0.57 0.57 0 1 0 -1.14 0zM60.58 12.74L60.45 13.04L62.96 14.08L63.08 13.78zM62.45 13.93 a0.57 0.57 0 1 0 1.14 0 a0.57 0.57 0 1 0 -1.14 0zM59.29 14.78L59.06 15.01L59.84 15.8L60.07 15.57zM59.39 15.68 a0.57 0.57 0 1 0 1.14 0 a0.57 0.57 0 1 0 -1.14 0zM57.32 16.17L57.02 16.3L57.5 17.45L57.8 17.33zM57.08 17.39 a0.57 0.57 0 1 0 1.14 0 a0.57 0.57 0 1 0 -1.14 0zM54.97 16.71L54.64 16.71L54.64 18L54.97 18zM54.24 18 a0.57 0.57 0 1 0 1.14 0 a0.57 0.57 0 1 0 -1.14 0zM52.59 16.3L52.29 16.17L51.84 17.27L52.14 17.4zM51.42 17.33 a0.57 0.57 0 1 0 1.14 0 a0.57 0.57 0 1 0 -1.14 0zM50.55 15.01L50.32 14.78L48.63 16.47L48.86 16.7zM48.18 16.59 a0.57 0.57 0 1 0 1.14 0 a0.57 0.57 0 1 0 -1.14 0zM49.16 13.04L49.04 12.74L47.45 13.4L47.57 13.7zM46.94 13.55 a0.57 0.57 0 1 0 1.14 0 a0.57 0.57 0 1 0 -1.14 0zM48.63 10.69L48.63 10.37L46 10.37L46 10.69zM45.43 10.53 a0.57 0.57 0 1 0 1.14 0 a0.57 0.57 0 1 0 -1.14 0zM49.04 8.31L49.16 8.01L47.45 7.31L47.33 7.6zM46.82 7.46 a0.57 0.57 0 1 0 1.14 0 a0.57 0.57 0 1 0 -1.14 0zM50.32 6.27L50.55 6.04L49.04 4.53L48.81 4.76zM48.35 4.65 a0.57 0.57 0 1 0 1.14 0 a0.57 0.57 0 1 0 -1.14 0zM52.29 4.88L52.59 4.76L51.68 2.56L51.38 2.68zM50.96 2.62 a0.57 0.57 0 1 0 1.14 0 a0.57 0.57 0 1 0 -1.14 0zM54.64 4.35L54.97 4.35L54.97 3.19L54.64 3.19zM54.24 3.19 a0.57 0.57 0 1 0 1.14 0 a0.57 0.57 0 1 0 -1.14 0zM57.02 4.76L57.32 4.88L58.11 2.98L57.81 2.85zM57.39 2.92 a0.57 0.57 0 1 0 1.14 0 a0.57 0.57 0 1 0 -1.14 0zM59.06 6.04L59.29 6.27L61.03 4.53L60.8 4.31zM60.34 4.42 a0.57 0.57 0 1 0 1.14 0 a0.57 0.57 0 1 0 -1.14 0zM60.45 8.01L60.58 8.31L63.08 7.28L62.96 6.98zM62.45 7.13 a0.57 0.57 0 1 0 1.14 0 a0.57 0.57 0 1 0 -1.14 0zM48.63 10.53 a6.18 6.18 0 1 0 12.36 0 a6.18 6.18 0 1 0 -12.36 0z" fill="rgba(248, 252, 255, 0.13)"></path><path d="M54.44 16.7 A5.18 5.18 0 0 1 49.64 7.14M49.64 7.14 A12.36 12.36 0 0 0 54.44 16.7" fill="rgba(147, 209, 255, 0.13)" fill-rule="nonzero"></path><path d="M53.38 14.98 a1.24 1.24 0 1 0 2.48 0 a1.24 1.24 0 1 0 -2.48 0zM49.31 10.52 a1.24 1.24 0 1 0 2.48 0 a1.24 1.24 0 1 0 -2.48 0zM52.83 8.49 a1.24 1.24 0 1 0 2.48 0 a1.24 1.24 0 1 0 -2.48 0zM57.65 9.05 a1.24 1.24 0 1 0 2.48 0 a1.24 1.24 0 1 0 -2.48 0zM59 12.22 a0.8 0.8 0 1 0 1.6 0 a0.8 0.8 0 1 0 -1.6 0zM55.84 10.34 a0.25 0.25 0 1 0 0.5 0 a0.25 0.25 0 1 0 -0.5 0zM52.74 12.02 a0.68 0.68 0 1 0 1.36 0 a0.68 0.68 0 1 0 -1.36 0zM49.55 13.6 a0.49 0.49 0 1 0 0.98 0 a0.49 0.49 0 1 0 -0.98 0zM57.01 11.98 a0.37 0.37 0 1 0 0.74 0 a0.37 0.37 0 1 0 -0.74 0zM54.96 5.61 a0.93 0.93 0 1 0 1.86 0 a0.93 0.93 0 1 0 -1.86 0z" fill="rgba(147, 209, 255, 0.13)" fill-rule="nonzero"></path><path d="M196.51 40.79L196.51 41.05L197.47 41.05L197.47 40.79zM197.01 40.92 a0.46 0.46 0 1 0 0.92 0 a0.46 0.46 0 1 0 -0.92 0zM196.18 42.69L196.08 42.93L197.06 43.34L197.16 43.1zM196.65 43.22 a0.46 0.46 0 1 0 0.92 0 a0.46 0.46 0 1 0 -0.92 0zM195.15 44.33L194.97 44.51L195.72 45.26L195.9 45.08zM195.35 45.17 a0.46 0.46 0 1 0 0.92 0 a0.46 0.46 0 1 0 -0.92 0zM193.58 45.44L193.34 45.54L193.93 46.96L194.17 46.86zM193.59 46.91 a0.46 0.46 0 1 0 0.92 0 a0.46 0.46 0 1 0 -0.92 0zM191.7 45.87L191.44 45.87L191.44 47.19L191.7 47.19zM191.11 47.19 a0.46 0.46 0 1 0 0.92 0 a0.46 0.46 0 1 0 -0.92 0zM189.8 45.54L189.56 45.44L189.25 46.19L189.49 46.29zM188.91 46.24 a0.46 0.46 0 1 0 0.92 0 a0.46 0.46 0 1 0 -0.92 0zM188.16 44.51L187.98 44.33L186.43 45.88L186.61 46.07zM186.06 45.97 a0.46 0.46 0 1 0 0.92 0 a0.46 0.46 0 1 0 -0.92 0zM187.05 42.93L186.95 42.69L185.22 43.41L185.31 43.65zM184.81 43.53 a0.46 0.46 0 1 0 0.92 0 a0.46 0.46 0 1 0 -0.92 0zM186.63 41.05L186.63 40.79L184.62 40.79L184.62 41.05zM184.16 40.92 a0.46 0.46 0 1 0 0.92 0 a0.46 0.46 0 1 0 -0.92 0zM186.95 39.15L187.05 38.91L186.28 38.59L186.19 38.83zM185.78 38.71 a0.46 0.46 0 1 0 0.92 0 a0.46 0.46 0 1 0 -0.92 0zM187.98 37.52L188.16 37.34L187.37 36.54L187.19 36.73zM186.82 36.64 a0.46 0.46 0 1 0 0.92 0 a0.46 0.46 0 1 0 -0.92 0zM189.56 36.41L189.8 36.31L189.44 35.44L189.2 35.54zM188.86 35.49 a0.46 0.46 0 1 0 0.92 0 a0.46 0.46 0 1 0 -0.92 0zM191.44 35.98L191.7 35.98L191.7 33.72L191.44 33.72zM191.11 33.72 a0.46 0.46 0 1 0 0.92 0 a0.46 0.46 0 1 0 -0.92 0zM193.34 36.31L193.58 36.41L194.3 34.66L194.06 34.56zM193.72 34.61 a0.46 0.46 0 1 0 0.92 0 a0.46 0.46 0 1 0 -0.92 0zM194.97 37.34L195.15 37.52L195.89 36.78L195.71 36.6zM195.34 36.69 a0.46 0.46 0 1 0 0.92 0 a0.46 0.46 0 1 0 -0.92 0zM196.08 38.91L196.18 39.15L198.19 38.32L198.09 38.08zM197.68 38.2 a0.46 0.46 0 1 0 0.92 0 a0.46 0.46 0 1 0 -0.92 0zM186.63 40.92 a4.94 4.94 0 1 0 9.88 0 a4.94 4.94 0 1 0 -9.88 0z" fill="rgba(248, 252, 255, 0.13)"></path><path d="M189.51 45.42 A3.944 3.944 0 0 1 188.7 36.9M188.7 36.9 A9.888 9.888 0 0 0 189.51 45.42" fill="rgba(147, 209, 255, 0.13)" fill-rule="nonzero"></path><path d="M192.27 39.75 a0.99 0.99 0 1 0 1.98 0 a0.99 0.99 0 1 0 -1.98 0zM190.38 44.93 a0.89 0.89 0 1 0 1.78 0 a0.89 0.89 0 1 0 -1.78 0zM188.67 39.2 a0.99 0.99 0 1 0 1.98 0 a0.99 0.99 0 1 0 -1.98 0zM194.85 44.1 a0.2 0.2 0 1 0 0.4 0 a0.2 0.2 0 1 0 -0.4 0zM188.51 41.78 a0.64 0.64 0 1 0 1.28 0 a0.64 0.64 0 1 0 -1.28 0zM192.46 42.98 a0.84 0.84 0 1 0 1.68 0 a0.84 0.84 0 1 0 -1.68 0zM190.19 37 a0.4 0.4 0 1 0 0.8 0 a0.4 0.4 0 1 0 -0.8 0zM190.76 41.32 a0.2 0.2 0 1 0 0.4 0 a0.2 0.2 0 1 0 -0.4 0zM195.66 41.16 a0.4 0.4 0 1 0 0.8 0 a0.4 0.4 0 1 0 -0.8 0zM187.15 43.02 a0.25 0.25 0 1 0 0.5 0 a0.25 0.25 0 1 0 -0.5 0z" fill="rgba(147, 209, 255, 0.13)" fill-rule="nonzero"></path><path d="M148.46 144.81L148.46 145.26L150.33 145.26L150.33 144.81zM149.53 145.04 a0.8 0.8 0 1 0 1.6 0 a0.8 0.8 0 1 0 -1.6 0zM147.88 148.14L147.71 148.55L148.72 148.97L148.89 148.55zM148 148.76 a0.8 0.8 0 1 0 1.6 0 a0.8 0.8 0 1 0 -1.6 0zM146.08 150.99L145.76 151.31L148.08 153.63L148.4 153.31zM147.44 153.47 a0.8 0.8 0 1 0 1.6 0 a0.8 0.8 0 1 0 -1.6 0zM143.33 152.94L142.91 153.11L143.9 155.51L144.32 155.33zM143.31 155.42 a0.8 0.8 0 1 0 1.6 0 a0.8 0.8 0 1 0 -1.6 0zM140.03 153.68L139.58 153.68L139.58 157.44L140.03 157.44zM139.01 157.44 a0.8 0.8 0 1 0 1.6 0 a0.8 0.8 0 1 0 -1.6 0zM136.71 153.11L136.29 152.94L134.81 156.5L135.23 156.67zM134.22 156.58 a0.8 0.8 0 1 0 1.6 0 a0.8 0.8 0 1 0 -1.6 0zM133.85 151.31L133.53 150.99L132.6 151.92L132.92 152.24zM131.96 152.08 a0.8 0.8 0 1 0 1.6 0 a0.8 0.8 0 1 0 -1.6 0zM131.9 148.55L131.73 148.14L129.95 148.87L130.13 149.29zM129.24 149.08 a0.8 0.8 0 1 0 1.6 0 a0.8 0.8 0 1 0 -1.6 0zM131.16 145.26L131.16 144.81L129.59 144.81L129.59 145.26zM128.79 145.04 a0.8 0.8 0 1 0 1.6 0 a0.8 0.8 0 1 0 -1.6 0zM131.73 141.93L131.9 141.52L129.71 140.61L129.54 141.03zM128.83 140.82 a0.8 0.8 0 1 0 1.6 0 a0.8 0.8 0 1 0 -1.6 0zM133.53 139.08L133.85 138.76L130.97 135.88L130.65 136.2zM130.01 136.04 a0.8 0.8 0 1 0 1.6 0 a0.8 0.8 0 1 0 -1.6 0zM136.29 137.13L136.71 136.96L135.49 134.03L135.07 134.2zM134.48 134.12 a0.8 0.8 0 1 0 1.6 0 a0.8 0.8 0 1 0 -1.6 0zM139.58 136.39L140.03 136.39L140.03 134.97L139.58 134.97zM139.01 134.97 a0.8 0.8 0 1 0 1.6 0 a0.8 0.8 0 1 0 -1.6 0zM142.91 136.96L143.33 137.13L144.86 133.42L144.45 133.24zM143.85 133.33 a0.8 0.8 0 1 0 1.6 0 a0.8 0.8 0 1 0 -1.6 0zM145.76 138.76L146.08 139.08L148.69 136.47L148.37 136.15zM147.73 136.31 a0.8 0.8 0 1 0 1.6 0 a0.8 0.8 0 1 0 -1.6 0zM147.71 141.52L147.88 141.93L151.56 140.41L151.39 139.99zM150.67 140.2 a0.8 0.8 0 1 0 1.6 0 a0.8 0.8 0 1 0 -1.6 0zM131.16 145.04 a8.65 8.65 0 1 0 17.3 0 a8.65 8.65 0 1 0 -17.3 0z" fill="rgba(248, 252, 255, 0.13)"></path><path d="M138.9 136.43 A7.651999999999999 7.651999999999999 0 0 1 147.72 148.53M147.72 148.53 A17.304 17.304 0 0 0 138.9 136.43" fill="rgba(147, 209, 255, 0.13)" fill-rule="nonzero"></path><path d="M135.84 148.51 a1.73 1.73 0 1 0 3.46 0 a1.73 1.73 0 1 0 -3.46 0zM141.8 146.47 a1.73 1.73 0 1 0 3.46 0 a1.73 1.73 0 1 0 -3.46 0zM139.07 139.42 a1.73 1.73 0 1 0 3.46 0 a1.73 1.73 0 1 0 -3.46 0zM143.22 142.5 a0.43 0.43 0 1 0 0.86 0 a0.43 0.43 0 1 0 -0.86 0zM133.57 145.25 a0.95 0.95 0 1 0 1.9 0 a0.95 0.95 0 1 0 -1.9 0zM145.81 140.45 a0.61 0.61 0 1 0 1.22 0 a0.61 0.61 0 1 0 -1.22 0zM136.24 152.36 a0.43 0.43 0 1 0 0.86 0 a0.43 0.43 0 1 0 -0.86 0zM134.02 141.34 a1.21 1.21 0 1 0 2.42 0 a1.21 1.21 0 1 0 -2.42 0zM145.48 150.2 a0.52 0.52 0 1 0 1.04 0 a0.52 0.52 0 1 0 -1.04 0zM146.98 145.66 a0.52 0.52 0 1 0 1.04 0 a0.52 0.52 0 1 0 -1.04 0z" fill="rgba(147, 209, 255, 0.13)" fill-rule="nonzero"></path><path d="M88.4 94.56L88.4 95.02L90.13 95.02L90.13 94.56zM89.33 94.79 a0.8 0.8 0 1 0 1.6 0 a0.8 0.8 0 1 0 -1.6 0zM87.83 97.89L87.66 98.31L90.93 99.67L91.1 99.25zM90.22 99.46 a0.8 0.8 0 1 0 1.6 0 a0.8 0.8 0 1 0 -1.6 0zM86.03 100.75L85.71 101.07L87.55 102.91L87.87 102.59zM86.91 102.75 a0.8 0.8 0 1 0 1.6 0 a0.8 0.8 0 1 0 -1.6 0zM83.27 102.7L82.86 102.87L84.01 105.65L84.43 105.48zM83.42 105.56 a0.8 0.8 0 1 0 1.6 0 a0.8 0.8 0 1 0 -1.6 0zM79.98 103.44L79.53 103.44L79.53 106.45L79.98 106.45zM78.95 106.45 a0.8 0.8 0 1 0 1.6 0 a0.8 0.8 0 1 0 -1.6 0zM76.65 102.87L76.24 102.7L75.47 104.53L75.89 104.71zM74.88 104.62 a0.8 0.8 0 1 0 1.6 0 a0.8 0.8 0 1 0 -1.6 0zM73.8 101.07L73.48 100.75L71.97 102.25L72.29 102.57zM71.33 102.41 a0.8 0.8 0 1 0 1.6 0 a0.8 0.8 0 1 0 -1.6 0zM71.85 98.31L71.68 97.89L68.25 99.31L68.42 99.73zM67.54 99.52 a0.8 0.8 0 1 0 1.6 0 a0.8 0.8 0 1 0 -1.6 0zM71.11 95.02L71.11 94.56L69.29 94.56L69.29 95.02zM68.49 94.79 a0.8 0.8 0 1 0 1.6 0 a0.8 0.8 0 1 0 -1.6 0zM71.68 91.69L71.85 91.27L70.46 90.69L70.28 91.11zM69.57 90.9 a0.8 0.8 0 1 0 1.6 0 a0.8 0.8 0 1 0 -1.6 0zM73.48 88.84L73.8 88.52L72.02 86.74L71.7 87.06zM71.06 86.9 a0.8 0.8 0 1 0 1.6 0 a0.8 0.8 0 1 0 -1.6 0zM76.24 86.89L76.65 86.71L75.9 84.89L75.48 85.07zM74.89 84.98 a0.8 0.8 0 1 0 1.6 0 a0.8 0.8 0 1 0 -1.6 0zM79.53 86.14L79.98 86.14L79.98 84.54L79.53 84.54zM78.95 84.54 a0.8 0.8 0 1 0 1.6 0 a0.8 0.8 0 1 0 -1.6 0zM82.86 86.71L83.27 86.89L84.38 84.23L83.96 84.05zM83.37 84.14 a0.8 0.8 0 1 0 1.6 0 a0.8 0.8 0 1 0 -1.6 0zM85.71 88.52L86.03 88.84L88.17 86.7L87.85 86.38zM87.21 86.54 a0.8 0.8 0 1 0 1.6 0 a0.8 0.8 0 1 0 -1.6 0zM87.66 91.27L87.83 91.69L90.22 90.7L90.04 90.28zM89.33 90.49 a0.8 0.8 0 1 0 1.6 0 a0.8 0.8 0 1 0 -1.6 0zM71.1 94.79 a8.65 8.65 0 1 0 17.3 0 a8.65 8.65 0 1 0 -17.3 0z" fill="rgba(248, 252, 255, 0.13)"></path><path d="M80.27 103.43 A7.651999999999999 7.651999999999999 0 0 1 72.01 90.94M72.01 90.94 A17.304 17.304 0 0 0 80.27 103.43" fill="rgba(147, 209, 255, 0.13)" fill-rule="nonzero"></path><path d="M82.98 92.98 a1.73 1.73 0 1 0 3.46 0 a1.73 1.73 0 1 0 -3.46 0zM75.94 102.32 a0.35 0.35 0 1 0 0.7 0 a0.35 0.35 0 1 0 -0.7 0zM71.22 95.96 a0.87 0.87 0 1 0 1.74 0 a0.87 0.87 0 1 0 -1.74 0zM77.45 99.74 a1.73 1.73 0 1 0 3.46 0 a1.73 1.73 0 1 0 -3.46 0zM74.19 89.33 a1.73 1.73 0 1 0 3.46 0 a1.73 1.73 0 1 0 -3.46 0zM82.95 89.3 a0.43 0.43 0 1 0 0.86 0 a0.43 0.43 0 1 0 -0.86 0zM84.24 97.67 a1.21 1.21 0 1 0 2.42 0 a1.21 1.21 0 1 0 -2.42 0zM81.45 86.89 a0.43 0.43 0 1 0 0.86 0 a0.43 0.43 0 1 0 -0.86 0zM76.85 93.81 a1.64 1.64 0 1 0 3.28 0 a1.64 1.64 0 1 0 -3.28 0zM73.21 100.19 a0.52 0.52 0 1 0 1.04 0 a0.52 0.52 0 1 0 -1.04 0z" fill="rgba(147, 209, 255, 0.13)" fill-rule="nonzero"></path><path d="M69.77 62.27L69.77 62.66L72.14 62.66L72.14 62.27zM71.45 62.47 a0.69 0.69 0 1 0 1.38 0 a0.69 0.69 0 1 0 -1.38 0zM69.28 65.12L69.13 65.48L70.43 66.02L70.58 65.66zM69.82 65.84 a0.69 0.69 0 1 0 1.38 0 a0.69 0.69 0 1 0 -1.38 0zM67.73 67.57L67.46 67.84L68.73 69.12L69.01 68.84zM68.18 68.98 a0.69 0.69 0 1 0 1.38 0 a0.69 0.69 0 1 0 -1.38 0zM65.37 69.24L65.01 69.39L66.1 72.01L66.46 71.86zM65.59 71.94 a0.69 0.69 0 1 0 1.38 0 a0.69 0.69 0 1 0 -1.38 0zM62.55 69.88L62.16 69.88L62.16 71.23L62.55 71.23zM61.67 71.23 a0.69 0.69 0 1 0 1.38 0 a0.69 0.69 0 1 0 -1.38 0zM59.7 69.39L59.34 69.24L58.01 72.45L58.37 72.59zM57.5 72.52 a0.69 0.69 0 1 0 1.38 0 a0.69 0.69 0 1 0 -1.38 0zM57.25 67.84L56.98 67.57L56.06 68.48L56.34 68.76zM55.51 68.62 a0.69 0.69 0 1 0 1.38 0 a0.69 0.69 0 1 0 -1.38 0zM55.58 65.48L55.43 65.12L54.37 65.56L54.52 65.92zM53.75 65.74 a0.69 0.69 0 1 0 1.38 0 a0.69 0.69 0 1 0 -1.38 0zM54.94 62.66L54.94 62.27L51.27 62.27L51.27 62.66zM50.58 62.47 a0.69 0.69 0 1 0 1.38 0 a0.69 0.69 0 1 0 -1.38 0zM55.43 59.81L55.58 59.45L53.84 58.73L53.7 59.09zM53.08 58.91 a0.69 0.69 0 1 0 1.38 0 a0.69 0.69 0 1 0 -1.38 0zM56.98 57.36L57.25 57.09L56.56 56.39L56.28 56.67zM55.73 56.53 a0.69 0.69 0 1 0 1.38 0 a0.69 0.69 0 1 0 -1.38 0zM59.34 55.69L59.7 55.54L59.3 54.57L58.94 54.72zM58.43 54.65 a0.69 0.69 0 1 0 1.38 0 a0.69 0.69 0 1 0 -1.38 0zM62.16 55.05L62.55 55.05L62.55 52.05L62.16 52.05zM61.67 52.05 a0.69 0.69 0 1 0 1.38 0 a0.69 0.69 0 1 0 -1.38 0zM65.01 55.54L65.37 55.69L66.47 53.05L66.11 52.9zM65.6 52.97 a0.69 0.69 0 1 0 1.38 0 a0.69 0.69 0 1 0 -1.38 0zM67.46 57.09L67.73 57.36L68.45 56.65L68.17 56.37zM67.62 56.51 a0.69 0.69 0 1 0 1.38 0 a0.69 0.69 0 1 0 -1.38 0zM69.13 59.45L69.28 59.81L71.48 58.9L71.33 58.54zM70.71 58.72 a0.69 0.69 0 1 0 1.38 0 a0.69 0.69 0 1 0 -1.38 0zM54.94 62.47 a7.42 7.42 0 1 0 14.84 0 a7.42 7.42 0 1 0 -14.84 0z" fill="rgba(248, 252, 255, 0.13)"></path><path d="M61.21 55.14 A6.416 6.416 0 0 1 69.28 65.12M69.28 65.12 A14.832 14.832 0 0 0 61.21 55.14" fill="rgba(147, 209, 255, 0.13)" fill-rule="nonzero"></path><path d="M60.73 67.77 a1.48 1.48 0 1 0 2.96 0 a1.48 1.48 0 1 0 -2.96 0zM58.12 64.59 a1.26 1.26 0 1 0 2.52 0 a1.26 1.26 0 1 0 -2.52 0zM57.2 60.31 a1.48 1.48 0 1 0 2.96 0 a1.48 1.48 0 1 0 -2.96 0zM65.3 65.52 a1.48 1.48 0 1 0 2.96 0 a1.48 1.48 0 1 0 -2.96 0zM68.07 62.45 a0.59 0.59 0 1 0 1.18 0 a0.59 0.59 0 1 0 -1.18 0zM61.04 58.11 a1.04 1.04 0 1 0 2.08 0 a1.04 1.04 0 1 0 -2.08 0zM65.17 58.05 a1.33 1.33 0 1 0 2.66 0 a1.33 1.33 0 1 0 -2.66 0zM63.94 62.59 a0.67 0.67 0 1 0 1.34 0 a0.67 0.67 0 1 0 -1.34 0zM59.94 55.71 a0.3 0.3 0 1 0 0.6 0 a0.3 0.3 0 1 0 -0.6 0zM61.41 61.63 a0.59 0.59 0 1 0 1.18 0 a0.59 0.59 0 1 0 -1.18 0z" fill="rgba(147, 209, 255, 0.13)" fill-rule="nonzero"></path></g><defs><mask id="SvgjsMask1000"><rect width="200" height="200" fill="#ffffff"></rect></mask></defs></svg>