<svg xmlns="http://www.w3.org/2000/svg" version="1.1" xmlns:xlink="http://www.w3.org/1999/xlink" xmlns:svgjs="http://svgjs.com/svgjs" width="1440" height="560" preserveAspectRatio="none" viewBox="0 0 1440 560"><g mask="url(&quot;#SvgjsMask1000&quot;)" fill="none"><rect width="1440" height="560" x="0" y="0" fill="#0e2a47"></rect><path d="M0,463.438C83.683,446.81,142.358,379.109,216.445,336.795C295.771,291.489,413.273,289.161,450.892,205.915C488.53,122.628,429.246,27.75,394.26,-56.686C366.083,-124.688,322.034,-182.046,268.991,-233.082C219.931,-280.286,164.392,-318.379,99.827,-339.979C33.414,-362.197,-35.304,-362.673,-105.196,-358.265C-192.841,-352.737,-301.542,-377.488,-358.961,-311.041C-416.395,-244.577,-355.883,-139.912,-368.947,-53.047C-382.137,34.659,-451.582,111.709,-435.661,198.96C-418.366,293.741,-362.176,385.409,-279.818,435.406C-198.032,485.056,-93.842,482.085,0,463.438" fill="#0b2239"></path><path d="M1440 1199.0030000000002C1554.365 1170.127 1615.395 1051.093 1714.894 987.744 1815.008 924.004 1955.9859999999999 923.858 2024.438 826.904 2095.828 725.788 2096.449 590.624 2082.07 467.68399999999997 2067.434 342.543 2034.008 211.152 1942.315 124.74099999999999 1853.306 40.860000000000014 1720.413 37.27999999999997 1600.391 13.756999999999948 1491.12-7.658999999999992 1378.883-42.898000000000025 1273.721-6.293999999999983 1170.4769999999999 29.642000000000053 1105.978 125.95400000000001 1036.226 210.128 967.9649999999999 292.503 890.795 373.012 872.114 478.35 853.161 585.22 904.223 686.863 933.125 791.482 967.8330000000001 917.116 957.0350000000001 1071.777 1058.616 1153.446 1160.461 1235.328 1313.297 1230.9940000000001 1440 1199.0030000000002" fill="#113255"></path></g><defs><mask id="SvgjsMask1000"><rect width="1440" height="560" fill="#ffffff"></rect></mask></defs></svg>