<svg xmlns="http://www.w3.org/2000/svg" version="1.1" xmlns:xlink="http://www.w3.org/1999/xlink" xmlns:svgjs="http://svgjs.com/svgjs" width="1440" height="560" preserveAspectRatio="none" viewBox="0 0 1440 560"><g mask="url(&quot;#SvgjsMask1028&quot;)" fill="none"><rect width="1440" height="560" x="0" y="0" fill="url(#SvgjsLinearGradient1029)"></rect><path d="M1440 0L934.5699999999999 0L1440 227.97z" fill="rgba(255, 255, 255, .1)"></path><path d="M934.5699999999999 0L1440 227.97L1440 288.54L532.81 0z" fill="rgba(255, 255, 255, .075)"></path><path d="M532.81 0L1440 288.54L1440 376.24L299.42999999999995 0z" fill="rgba(255, 255, 255, .05)"></path><path d="M299.42999999999984 0L1440 376.24L1440 494.46000000000004L172.36999999999983 0z" fill="rgba(255, 255, 255, .025)"></path><path d="M0 560L488.02 560L0 316.07z" fill="rgba(0, 0, 0, .1)"></path><path d="M0 316.07L488.02 560L828.9 560L0 191.76z" fill="rgba(0, 0, 0, .075)"></path><path d="M0 191.76L828.9 560L988.8199999999999 560L0 110.05999999999999z" fill="rgba(0, 0, 0, .05)"></path><path d="M0 110.06L988.8199999999999 560L1015.52 560L0 39.45z" fill="rgba(0, 0, 0, .025)"></path></g><defs><mask id="SvgjsMask1028"><rect width="1440" height="560" fill="#ffffff"></rect></mask><linearGradient x1="84.72%" y1="-39.29%" x2="15.28%" y2="139.29%" gradientUnits="userSpaceOnUse" id="SvgjsLinearGradient1029"><stop stop-color="#0e2a47" offset="0"></stop><stop stop-color="#00459e" offset="1"></stop></linearGradient></defs></svg>