<svg xmlns:xlink="http://www.w3.org/1999/xlink" xmlns="http://www.w3.org/2000/svg" version="1.1" viewBox="0 0 400 400" height="400px" width="400px">
    <title>暂无地址</title>
    <defs>
        <linearGradient id="linearGradient-1" y2="50%" x2="-25.0446012%" y1="50%" x1="120.941398%">
            <stop offset="0%" stop-opacity="0" stop-color="#B2CAF4"></stop>
            <stop offset="100%" stop-color="#81BAFF"></stop>
        </linearGradient>
        <filter id="filter-2" filterUnits="objectBoundingBox" height="154.5%" width="105.5%" y="-27.3%" x="-2.7%">
            <feGaussianBlur in="SourceGraphic" stdDeviation="1"></feGaussianBlur>
        </filter>
        <filter id="filter-3" filterUnits="objectBoundingBox" height="1780.6%" width="610.7%" y="-840.3%" x="-255.4%">
            <feGaussianBlur in="SourceGraphic" stdDeviation="11 0"></feGaussianBlur>
        </filter>
        <linearGradient id="linearGradient-4" y2="100%" x2="40.5602192%" y1="9.70683346%" x1="56.0629425%">
            <stop offset="0%" stop-color="#EDF5FF"></stop>
            <stop offset="100%" stop-color="#A1B6CC"></stop>
        </linearGradient>
        <linearGradient id="linearGradient-5" y2="100%" x2="57.1197514%" y1="7.58435735%" x1="45.3436671%">
            <stop offset="0%" stop-color="#EEF4FF"></stop>
            <stop offset="100%" stop-color="#A1B6CC"></stop>
        </linearGradient>
        <linearGradient id="linearGradient-6" y2="-44.1478976%" x2="42.237335%" y1="100%" x1="42.237335%">
            <stop offset="0%" stop-color="#F7F8F9"></stop>
            <stop offset="100%" stop-color="#D5E4F8"></stop>
        </linearGradient>
        <linearGradient id="linearGradient-7" y2="2.85716708%" x2="42.237335%" y1="99.7096706%" x1="42.237335%">
            <stop offset="0%" stop-opacity="0" stop-color="#F2F4F9"></stop>
            <stop offset="100%" stop-color="#E7EEFF"></stop>
        </linearGradient>
        <linearGradient id="linearGradient-8" y2="2.85716708%" x2="42.237335%" y1="99.7096706%" x1="42.237335%">
            <stop offset="0%" stop-opacity="0" stop-color="#F2F4F9"></stop>
            <stop offset="100%" stop-color="#E7EEFF"></stop>
        </linearGradient>
        <linearGradient id="linearGradient-9" y2="0%" x2="42.237335%" y1="100%" x1="42.237335%">
            <stop offset="0.290329392%" stop-opacity="0" stop-color="#F2F4F9"></stop>
            <stop offset="97.9756123%" stop-color="#EAF0FF"></stop>
        </linearGradient>
        <filter id="filter-10" filterUnits="objectBoundingBox" height="2180.4%" width="765.8%" y="-1040.2%" x="-332.9%">
            <feGaussianBlur in="SourceGraphic" stdDeviation="11 0"></feGaussianBlur>
        </filter>
        <linearGradient id="linearGradient-11" y2="100%" x2="39.1222879%" y1="9.70683346%" x1="56.9864909%">
            <stop offset="0%" stop-color="#EDF5FF"></stop>
            <stop offset="100%" stop-color="#A1B6CC"></stop>
        </linearGradient>
        <linearGradient id="linearGradient-12" y2="100%" x2="58.6525294%" y1="7.58435735%" x1="44.341227%">
            <stop offset="0%" stop-color="#EEF4FF"></stop>
            <stop offset="100%" stop-color="#A1B6CC"></stop>
        </linearGradient>
        <filter id="filter-13" filterUnits="objectBoundingBox" height="1767.4%" width="607.7%" y="-833.7%" x="-253.8%">
            <feGaussianBlur in="SourceGraphic" stdDeviation="11 0"></feGaussianBlur>
        </filter>
        <linearGradient id="linearGradient-14" y2="100%" x2="39.0945518%" y1="9.70683346%" x1="57.0043051%">
            <stop offset="0%" stop-color="#EDF5FF"></stop>
            <stop offset="100%" stop-color="#A1B6CC"></stop>
        </linearGradient>
        <linearGradient id="linearGradient-15" y2="100%" x2="58.7826852%" y1="7.58435735%" x1="44.2561048%">
            <stop offset="0%" stop-color="#EEF4FF"></stop>
            <stop offset="100%" stop-color="#A1B6CC"></stop>
        </linearGradient>
        <linearGradient id="linearGradient-16" y2="100%" x2="50%" y1="0%" x1="50%">
            <stop offset="0%" stop-color="#E8EFFB"></stop>
            <stop offset="100%" stop-color="#CCD8EB"></stop>
        </linearGradient>
        <linearGradient id="linearGradient-17" y2="45.2744893%" x2="64.057144%" y1="59.4408416%" x1="16.0361016%">
            <stop offset="0%" stop-opacity="0.227819056" stop-color="#FFFFFF"></stop>
            <stop offset="100%" stop-opacity="0.699054851" stop-color="#FFFFFF"></stop>
        </linearGradient>
        <polygon points="25.7966941 5.23234672 0 43.8431373 50.7837019 34.1568627 94.8671708 51.8296732 140.464865 37.5300825 190.364962 43.8431373 165.723815 6.35321305 136.482215 -7.24050449e-14 94.8671708 11.3499938 58.0798331 -7.24050449e-14" id="path-18"></polygon>
        <linearGradient id="linearGradient-20" y2="76.9953422%" x2="131.608755%" y1="54.1683834%" x1="19.687865%">
            <stop offset="0%" stop-color="#E1E8EF"></stop>
            <stop offset="100%" stop-color="#F8FBFD"></stop>
        </linearGradient>
        <linearGradient id="linearGradient-21" y2="50%" x2="73.5955623%" y1="57.1589867%" x1="19.7181551%">
            <stop offset="0%" stop-color="#F8FBFD"></stop>
            <stop offset="100%" stop-color="#E1E8EF"></stop>
        </linearGradient>
        <linearGradient id="linearGradient-22" y2="100%" x2="50%" y1="0%" x1="50%">
            <stop offset="0%" stop-color="#F8FAFF"></stop>
            <stop offset="100%" stop-color="#CCD8EB"></stop>
        </linearGradient>
        <path id="path-23" d="M57,17 C79.09139,17 97,34.90861 97,57 C97,57.0367077 96.9999506,57.0734039 96.9998517,57.1100885 L97,97 L57,97 C34.908069,96.999459 17,79.0910563 17,57 C17,34.90861 34.90861,17 57,17 Z"></path>
        <linearGradient id="linearGradient-25" y2="100%" x2="50%" y1="0%" x1="50%">
            <stop offset="0%" stop-color="#E8EFFB"></stop>
            <stop offset="100%" stop-color="#CCD8EB"></stop>
        </linearGradient>
    </defs>
    <g fill-rule="evenodd" fill="none" stroke-width="1" stroke="none" id="页面-1">
        <g id="暂无地址">
            <g id="编组-14">
                <rect height="400" width="400" y="0" x="0" fill="#FFFFFF" id="矩形"></rect>
                <ellipse ry="5.5" rx="55" cy="326.5" cx="200" filter="url(#filter-2)" opacity="0.330984933" style="mix-blend-mode: multiply;" fill="url(#linearGradient-1)" id="椭圆形"></ellipse>
                <g transform="translate(62.000000, 217.000000)" opacity="0.779366629" id="编组备份-2">
                    <ellipse ry="1.96363636" rx="6.46153846" cy="30.4363636" cx="17.5384615" filter="url(#filter-3)" opacity="0.598842076" fill="#85A0C7" id="椭圆形"></ellipse>
                    <path opacity="0.576520647" fill="url(#linearGradient-4)" id="椭圆形" d="M11.8617335,30.4039701 C13.694791,31.1838754 22.2783852,17.6565961 23.5292687,14.0447619 C24.7801522,10.4329278 23.4521686,6.50850351 20.5631343,5.27931501 C17.6740999,4.05012652 14.3180334,5.98164248 13.0671499,9.59347665 C11.8162664,13.2053108 10.028676,29.6240648 11.8617335,30.4039701 Z"></path>
                    <path fill="url(#linearGradient-5)" id="椭圆形" d="M12.1873699,30.4182368 C14.4159111,29.7723371 14.0881815,10.5754182 13.0126041,6.23350474 C11.9370266,1.89159124 8.21777978,-0.802984658 4.70543378,0.215001032 C1.19308778,1.23298672 -0.782303428,5.57804352 0.293274029,9.91995703 C1.36885149,14.2618705 9.95882868,31.0641365 12.1873699,30.4182368 Z"></path>
                </g>
                <path opacity="0.7" fill="url(#linearGradient-6)" id="形状结合" d="M63.5,106 C63.0401728,106 62.5872492,105.970442 62.1430256,105.913122 C61.6035521,105.970811 61.0551848,106 60.5,106 C51.9395864,106 45,99.0604136 45,90.5 C45,81.9395864 51.9395864,75 60.5,75 C61.4860328,75 62.4505611,75.0920718 63.3854566,75.2680872 C66.8949844,68.5703522 73.9137607,64 82,64 C93.5979797,64 103,73.4020203 103,85 L103,85 L115.5,85 C121.29899,85 126,89.7010101 126,95.5 C126,101.29899 121.29899,106 115.5,106 L63.5,106 Z"></path>
                <g transform="translate(40.000000, 244.000000)" id="编组-2">
                    <path fill="url(#linearGradient-7)" id="路径" d="M0,52 C17.3733745,26.5416667 33.962502,13.8125 49.7673826,13.8125 C65.5722631,13.8125 83.6498023,26.5416667 104,52 L0,52 Z"></path>
                    <path fill="url(#linearGradient-8)" id="路径-2" d="M61.6,52 C79.9318409,17.3333333 99.5499102,0 120.454208,0 C141.358506,0 179.340436,17.3333333 234.4,52 L61.6,52 Z"></path>
                    <path fill="url(#linearGradient-9)" id="路径-3" d="M320,52 C300.857606,24.9166667 282.803627,11.375 265.838063,11.375 C248.872499,11.375 221.593145,24.9166667 184,52 L320,52 Z"></path>
                </g>
                <g transform="translate(286.000000, 199.000000)" id="编组-62">
                    <ellipse ry="1.5862069" rx="4.95652174" cy="21.4137931" cx="14.0434783" filter="url(#filter-10)" opacity="0.669852121" fill="#85A0C7" id="椭圆形"></ellipse>
                    <path opacity="0.576520647" fill="url(#linearGradient-11)" id="椭圆形" d="M9.68896947,21.3906452 C11.0950726,21.947953 17.6793824,12.2815764 18.6389111,9.70061766 C19.5984398,7.11965894 18.5797691,4.31532836 16.3636465,3.43697 C14.1475239,2.55861163 11.5731499,3.93884193 10.6136212,6.51980065 C9.65409256,9.10075937 8.28286637,20.8333374 9.68896947,21.3906452 Z"></path>
                    <path fill="url(#linearGradient-12)" id="椭圆形" d="M9.4525712,21.4010398 C11.1810364,20.9466109 10.926848,7.44043608 10.092626,4.38564154 C9.25840396,1.330847 6.37374176,-0.564947493 3.64955262,0.151266021 C0.925363493,0.867479535 -0.606757562,3.92448557 0.22746447,6.97928011 C1.0616865,10.0340747 7.72410601,21.8554686 9.4525712,21.4010398 Z"></path>
                </g>
                <g transform="translate(295.000000, 292.000000)" opacity="0.896856399" id="编组">
                    <ellipse ry="1.97916667" rx="6.5" cy="36.0208333" cx="20.9" filter="url(#filter-13)" opacity="0.596865699" fill="#85A0C7" id="椭圆形"></ellipse>
                    <path opacity="0.576520647" fill="url(#linearGradient-14)" id="椭圆形" d="M16.2202535,36.3774869 C18.6032282,37.3207752 29.7619008,20.9596562 31.3880493,16.5911762 C33.0141979,12.2226962 31.2878192,7.47614139 27.5320746,5.98944929 C23.7763299,4.5027572 19.4134435,6.83890786 17.7872949,11.2073878 C16.1611463,15.5758678 13.8372788,35.4341987 16.2202535,36.3774869 Z"></path>
                    <path fill="url(#linearGradient-15)" id="椭圆形" d="M16.1956605,36.3949782 C19.1571441,35.6221686 18.7216279,12.6533342 17.2923049,7.45829781 C15.862982,2.26326142 10.9205162,-0.96075947 6.25299867,0.25724561 C1.58548109,1.47525069 -1.03959433,6.67404799 0.389728598,11.8690844 C1.81905153,17.0641208 13.2341768,37.1677877 16.1956605,36.3949782 Z"></path>
                </g>
            </g>
            <g transform="translate(87.000000, 91.000000)" id="编组-5">
                <g transform="translate(0.000000, 122.000000)" id="编组-3">
                    <polygon points="1 63.2423885 1 73.1638032 63.7368058 62.4256507 113.5 78.0747664 162.786118 64.193718 226 72.4821802 226 63.2423885 162.786118 46.131218 63.7368058 44.0747664" fill="#C0CEE3" id="路径"></polygon>
                    <polygon points="0 64.0523772 64.39761 52.5478888 112.975786 68.0747664 161.054612 54.0089556 226 62.9152816 189.643939 8.45522766 156.780728 0.0747663551 112.975786 11.5509185 73.518989 0.0747663551 37.6419479 6.39143376" fill="url(#linearGradient-16)" id="路径-20"></polygon>
                    <g transform="translate(19.000000, 7.074766)" id="路径-2">
                        <mask fill="white" id="mask-19">
                            <use xlink:href="#path-18"></use>
                        </mask>
                        <use xlink:href="#path-18" fill="url(#linearGradient-17)" id="蒙版"></use>
                        <polygon points="0 46.7316339 32.5204507 -7.1372549 56.4485414 -8.14594687 44.9998367 49.2458843" mask="url(#mask-19)" fill="#EFF4FA"></polygon>
                        <polygon points="56.4485414 -7.1372549 46.2056127 40.7843137 95.5 55.5686275 99.0220112 -14.9318112" mask="url(#mask-19)" fill="url(#linearGradient-20)" id="路径-3"></polygon>
                        <polygon points="95.5 57.6078431 98.0151182 -7.1372549 132.709926 -14.9318112 145.331693 55.5686275" mask="url(#mask-19)" fill="url(#linearGradient-21)" id="路径-4"></polygon>
                        <polygon points="133.47088 -8.14594687 145.331693 57.6078431 191 56.0784314 185.568492 -10.8063549" mask="url(#mask-19)" fill="#EFF4FA" id="路径-5"></polygon>
                        <polyline points="-3.39010195 19.372549 56.4485414 12.2352941 79.8960414 23.4509804 79.8960414 45.8823529" mask="url(#mask-19)" opacity="0.787272135" stroke-width="2" stroke="#FFFFFF" id="路径-6"></polyline>
                        <polyline points="79.8960414 23.4509804 99.0220112 21.338016 138.997758 28.5490196 170.250871 14.8306595" mask="url(#mask-19)" opacity="0.667736235" stroke-width="2" stroke="#FFFFFF" id="路径-25"></polyline>
                        <polyline points="21.550931 41.8039216 31.2343735 16.3137255 38.2529697 0" mask="url(#mask-19)" stroke-width="2" stroke="#FFFFFF" id="路径-7"></polyline>
                        <polyline points="61.2607468 38.2352941 65.064478 16.3137255 87.2421966 2.03921569" mask="url(#mask-19)" stroke="#FFFFFF" id="路径-8"></polyline>
                        <polyline points="111.930108 41.8039216 111.930108 23.9607843 136.618018 8.71301248 107.458414 2.76382867" mask="url(#mask-19)" stroke="#FFFFFF" id="路径-9"></polyline>
                        <polyline points="175.251415 44.8627451 162.23544 19.372549 148.235859 2.03921569" mask="url(#mask-19)" opacity="0.698846726" stroke-width="2" stroke="#FFFFFF" id="路径-10"></polyline>
                    </g>
                </g>
                <g transform="translate(73.000000, 0.000000)" id="编组-2">
                    <g transform="translate(0.000000, 0.000000)" id="形状结合备份-4">
                        <mask fill="white" id="mask-24">
                            <use xlink:href="#path-23"></use>
                        </mask>
                        <use xlink:href="#path-23" transform="translate(57.000000, 57.000000) rotate(-315.000000) translate(-57.000000, -57.000000)" fill="url(#linearGradient-22)" id="蒙版"></use>
                        <path transform="translate(57.000000, 60.000000) rotate(-315.000000) translate(-57.000000, -60.000000)" mask="url(#mask-24)" fill="url(#linearGradient-25)" d="M57,20 C79.09139,20 97,37.90861 97,60 C97,60.0367077 96.9999506,60.0734039 96.9998517,60.1100885 L97,100 L57,100 C34.908069,99.999459 17,82.0910563 17,60 C17,37.90861 34.90861,20 57,20 Z"></path>
                    </g>
                    <circle r="13.5" cy="56.9081169" cx="57" fill="#F8FBFF" id="椭圆形"></circle>
                </g>
            </g>
        </g>
    </g>
</svg>